<svg xmlns="http://www.w3.org/2000/svg" width="1280" height="720" viewBox="0 0 1280 720">
<defs>
  <linearGradient id="bg" x1="0" y1="0" x2="1" y2="1"><stop stop-color="#050917"/><stop offset=".45" stop-color="#101435"/><stop offset="1" stop-color="#2b072e"/></linearGradient>
  <linearGradient id="title" x1="0" y1="0" x2="1" y2="0"><stop stop-color="#00e5ff"/><stop offset=".48" stop-color="#fd2eae"/><stop offset="1" stop-color="#ff9c22"/></linearGradient>
  <radialGradient id="glow"><stop stop-color="#00e5ff" stop-opacity=".75"/><stop offset="1" stop-color="#00e5ff" stop-opacity="0"/></radialGradient>
  <filter id="shadow"><feGaussianBlur stdDeviation="8" result="b"/><feMerge><feMergeNode in="b"/><feMergeNode in="SourceGraphic"/></feMerge></filter>
</defs>
<rect width="1280" height="720" fill="url(#bg)"/>
<circle cx="190" cy="120" r="240" fill="url(#glow)" opacity=".35"/><circle cx="1110" cy="570" r="270" fill="#ff267f" opacity=".13"/>
<path d="M0 610 Q170 520 330 605 T650 590 T960 610 T1280 570 V720 H0Z" fill="#070914"/>
<g opacity=".9">
 <path d="M80 155 C125 75 190 80 220 152 C254 230 211 311 153 327 C102 341 46 279 53 220Z" fill="#00d7ef"/>
 <circle cx="98" cy="98" r="18" fill="#00d7ef"/><circle cx="245" cy="130" r="13" fill="#00d7ef"/><circle cx="48" cy="337" r="16" fill="#00d7ef"/>
 <path d="M1040 95 C1110 38 1197 69 1216 151 C1234 228 1185 293 1128 302 C1075 309 1019 258 1014 190Z" fill="#ff2d92"/>
 <circle cx="1198" cy="70" r="16" fill="#ff2d92"/><circle cx="1010" cy="90" r="13" fill="#ff2d92"/><circle cx="1241" cy="310" r="18" fill="#ff2d92"/>
</g>
<g transform="translate(120 205)">
 <path d="M0 280 L56 72 L126 18 L190 72 L246 280Z" fill="#13192a" stroke="#00e5ff" stroke-width="8"/>
 <circle cx="123" cy="102" r="48" fill="#050917" stroke="#00e5ff" stroke-width="8"/><path d="M91 103 L123 72 L155 103 L123 134Z" fill="none" stroke="#fff" stroke-width="7"/>
 <path d="M48 280 L80 150 L166 150 L200 280Z" fill="#0b0d16"/>
</g>
<g transform="translate(914 205)">
 <path d="M0 280 L56 72 L126 18 L190 72 L246 280Z" fill="#241225" stroke="#ff4a93" stroke-width="8"/>
 <circle cx="123" cy="102" r="48" fill="#050917" stroke="#ff4a93" stroke-width="8"/><circle cx="123" cy="102" r="27" fill="none" stroke="#fff" stroke-width="7"/>
 <path d="M48 280 L80 150 L166 150 L200 280Z" fill="#0b0d16"/>
</g>
<g fill="#171a28" stroke="#8ff8ff" stroke-width="4">
 <rect x="430" y="500" width="70" height="120" rx="18"/><circle cx="465" cy="472" r="35"/>
 <rect x="535" y="475" width="70" height="145" rx="18"/><circle cx="570" cy="445" r="35"/>
 <rect x="675" y="475" width="70" height="145" rx="18"/><circle cx="710" cy="445" r="35"/>
 <rect x="780" y="500" width="70" height="120" rx="18"/><circle cx="815" cy="472" r="35"/>
</g>
<g filter="url(#shadow)">
 <text x="640" y="235" text-anchor="middle" font-family="Arial Black, Impact, sans-serif" font-size="132" letter-spacing="8" fill="url(#title)" stroke="#05060e" stroke-width="14" paint-order="stroke">TINTA</text>
 <text x="640" y="365" text-anchor="middle" font-family="Arial Black, Impact, sans-serif" font-size="132" letter-spacing="8" fill="#ffffff" stroke="#05060e" stroke-width="14" paint-order="stroke">FINAL</text>
</g>
<text x="640" y="420" text-anchor="middle" font-family="Arial, sans-serif" font-weight="700" font-size="27" letter-spacing="7" fill="#dce9ff">COMPETÍ · DOMINÁ · LLEGÁ AL FINAL</text>
<path d="M350 650 H930" stroke="url(#title)" stroke-width="9" stroke-linecap="round"/>
</svg>
